/* XPM */
static char *result[] = {
/* columns rows colors chars-per-pixel */
"40 40 125 2 ",
"   c #000000",
".  c #0D0D0D",
"X  c #141414",
"o  c #171718",
"O  c #1B1B1B",
"+  c #242425",
"@  c #272728",
"#  c #2B2A2A",
"$  c #333333",
"%  c #373838",
"&  c #3C3C3C",
"*  c #443D43",
"=  c #434344",
"-  c #484546",
";  c #4D4A41",
":  c #474748",
">  c #4C4C4C",
",  c #514D44",
"<  c #50424D",
"1  c #545148",
"2  c #4E4E50",
"3  c #554D53",
"4  c #535354",
"5  c #565E55",
"6  c #5E5C56",
"7  c #5B5B5B",
"8  c #635F56",
"9  c #65625C",
"0  c #5F5F61",
"q  c #635560",
"w  c #615C60",
"e  c #6C5C69",
"r  c #7E5D75",
"t  c #636364",
"y  c #6B6963",
"u  c #676768",
"i  c #6C6C6D",
"p  c #726E66",
"a  c #777367",
"s  c #787265",
"d  c #72706A",
"f  c #7B766A",
"g  c #7E796C",
"h  c #6E6F70",
"j  c #7D6C79",
"k  c #747474",
"l  c #7F7B70",
"z  c #76777B",
"x  c #77787C",
"c  c #7B7B7B",
"v  c #817C6E",
"b  c #837E71",
"n  c #8C846E",
"m  c #868173",
"M  c #8A8575",
"N  c #938C7B",
"B  c #807F81",
"V  c #8E7788",
"C  c #9D7994",
"Z  c #838384",
"A  c #8C8981",
"S  c #868689",
"D  c #8A8389",
"F  c #8B8B8C",
"G  c #8F908F",
"H  c #929089",
"J  c #8A8B90",
"K  c #928D91",
"L  c #939393",
"P  c #989693",
"I  c #9C9892",
"U  c #959699",
"Y  c #9F929C",
"T  c #97989D",
"R  c #9C9C9C",
"E  c #A49E91",
"W  c #91B38D",
"Q  c #96B394",
"!  c #A7A092",
"~  c #A5A29B",
"^  c #AAA69D",
"/  c #ACA89F",
"(  c #9D9DA2",
")  c #A89AA4",
"_  c #9FA0A0",
"`  c #A3A3A3",
"'  c #A9A6A1",
"]  c #ADAAA4",
"[  c #A5A6AB",
"{  c #ABABAA",
"}  c #B1ADA5",
"|  c #B1AEA8",
" . c #B4B0A6",
".. c #B5B2AC",
"X. c #B8B5AF",
"o. c #ADAEB4",
"O. c #AEB0B5",
"+. c #AFB1B8",
"@. c #B1B2B5",
"#. c #BAB7B1",
"$. c #B3B8B3",
"%. c #BBB8B2",
"&. c #B4B5BA",
"*. c #B7B8BD",
"=. c #B9BABF",
"-. c #BCD4B9",
";. c #BCBDC2",
":. c #C5BEC4",
">. c #BFC0C5",
",. c #C1C2C6",
"<. c #C4C5CA",
"1. c #C7C8CD",
"2. c #C9CACE",
"3. c #D3C5CF",
"4. c #CED5CD",
"5. c #CCCDD2",
"6. c #CFD0D4",
"7. c #D1D2D6",
"8. c #D5D5D9",
"9. c #D7D8DC",
"0. c #D9DADE",
"q. c #D5E8D3",
"w. c #DDDEE1",
"e. c #DFE0E3",
"r. c #E0E1E4",
/* pixels */
"E ] L ' ..| | | { | ` ' ..' #...#...] N E } | ..X.| X.X.| ] ..| ..%.....{ | } N ",
"` 7.5.5.0.7.8.9.8.5.7.5.7.8.w.w.8.8.1.M ~ ;.;.1.7.8.7.7.5.5.8.8.0.w.8.0.5.2.;.M ",
"..7.7.0.5.<.0.8.8.6.7.>.7.8.8.8.8.5.,.b ^ 7.<.7.5.0.0.5.,.;.;.1.9.w.8.8.1.8.1.b ",
"} 0.8.0.9.1.9.8.w.8.2.6.0.w.7.8.6.;.;.b / 2.7.0.6.6.1.7.6.5.1.;.0.w.0.w.8.5.&.b ",
"| w.9.9.0.0.<.8.w.8.;.1.8.;.9.e.r.2.[ g / 2.8.0.7.8.1.5.8.8.1.;.0.8.8.6.7.;.*.m ",
"| 8.8.7.7.w.8.7.8.w.w.w.8.w.7.5.0.5.) 1 H 1.7.;.<.7.<.<.<.5.6.5.7.0.8.8.0.6.>.f ",
"} 8.7.7.r.0.2.7.w.5.5.w.w.w.( J @.O.u # 7 O.7.7.2.8.8.6.8.w.w.6.0.w.7.8.5.7.;.g ",
"] 1.1.5.9.6.0.7.w.8.7.5.;.*.z > u h 3 < % i @.1.>.2.w.7.5.7.8.w.w.9.0.8.9.8.<.b ",
"] <.5.8.1.w.;.:.w.7.w.8.2.[ > * - : j C < & z o.7.w.5.1.7.1.5.8.8.8.w.5.2.5.,.b ",
"P 2.5.1.w.w.+.5.5.;.w.7.6.U * r V 4 8 Y K x t k ;.5.7.5.7.7.5.7.6.,.8.6.0.7.&.b ",
"' 8.5.5.w.;.( w.6.>.2.5.;.U * j ) S Z _ { { Z 7 k +.5.8.0.9.w.w.1.<.2.1.5.w.<.g ",
"| w.6.8.w.8.6.w.w.5.7.7._ u 4 x R [ ` ( ` ~ H k 2 u *.w.w.5.7.7.1.1.5.>.2.8.<.b ",
"#.w.7.5.5.7.2.5.w.w.w.6.S & h G F P ` K h w k S u * U w.w.8.7.9.2.0.0.9.0.6.[ a ",
"..8.9.7.&.5.<.8.1.;.w.;.S & z J x S ` P 0 # > J D q Z +.7.8.0.9.8.7.7.0.8.0.&.g ",
"| 7.;.5.&.1.w.r.2.>.7.6.( 2 h h z P { @.| 5 5 | 3.Y e L 2.8.e.w.7.;.2.e.9.8.;.f ",
"| 7.1.,.6.w.w.9.2.w.>.2.;.x 4 h k Z ( %.4.W Q 9.:.j D ,.5.5.5.5.0.6.8.2.7.9.1.m ",
"` >.6.7.9.0.w.9.<.7.7.8.7._ = u S z c R $.-.q.,.m S *.0.0.6.=.5.w.5.<.;.2.0.2.m ",
"' ;.5.1.6.5.8.e.2.7.<.9.2.,.k 7 x A B L R ` R Z h x B O.7.1.5.w.w.7.2.0.5.8.;.M ",
"] ,.<.*.;.O.<.,.@.U @.=.O.,.Z & 7 Z B P R Z 7 0 k 7 % x =.,.6.<.5.2.6.2.;.&.T v ",
"N M M M b f g f 9 > 6 s s 9 : & 7 t 5 S R R L i 7 x & ; v v m m n m v m g b b M ",
"! ] ^ ^ } } ] N 9 c y y p 6 R ..i 4 c G L U ` R z : $ d ^ / /  .| } ] } } ^ ^ N ",
"] w.7.=.,.1.2.,.S y 7 5 & : <.0.d 4 U ` R ~ ` ` c % 7 o.2.0.0.0.7.8.0.w.9.5.1.m ",
"] >.7.8.5.8.2.2.,.Z 4 3 % @ u c 0 i P [ { ' c 5 = + 2 R 2.0.0.0.5.5.w.7.8.5.,.M ",
"..8.6.7.7.0.6.0.0.*.7 % % O & 1 k L U ~ ` B = + # ; % Z 7.2.8.r.7.7.8.<.5.w.2.m ",
"| 0.5.8.w.6.>.0.r.<.4 X O @ t F ` ' ` P c = # : k F 0 F 5.6.8.0.w.5.8.8.w.r.<.g ",
"] 0.8.8.8.<.1.w.w.1.u @ @ @ $ h L L L x & @ $ u L x R =.5.7.w.1.0.5.1.2.8.w.>.g ",
"..8.6.0.1.6.w.9.8.9.` 4 O . . + $ $ $ @ . . o # 4 F @.2.5.5.5.7.2.0.;.1.7.e.5.v ",
"] 5.7.0.8.8.w.8.5.9.6.i .                       o 7 [ <.7.5.,.w.5.7.7.7.5.7.2.b ",
"{ 7.5.8.e.8.w.6.5.8.5.i .                         @ U 7.8.5.,.r.w.<.6.7.5.7.=.v ",
"] 7.7.6.8.7.>.>.5.0.1.S $                       . 2 { 5.w.5.;.8.0.2.0.8.5.8.1.b ",
"| 7.7.5.;.5.;.1.8.9.9.<.S & @ .             o @ = _ <.5.,.7.1.7.0.9.8.8.5.r.5.b ",
"{ 7.6.w.;.o.+.+.0.7.8.=.[ o.S % O O o . o O 2 L [ 1.7.6.;.o.,.7.9.5.8.0.7.0.2.m ",
"X.9.w.9.7.<.2.6.9.8.9.0.5.0.2.U x c x , y F [ 1.0.<.5.1.7.+.1.8.w.9.8.r.7.7.<.v ",
"..:.8.9.9.2.6.w.8.8.9.8.,.9.w.7.<.o.&.v E ;.8.8.8.5.1.6.w.w.5.7.w.8.7.8.5.8.<.v ",
"..<.5.2.9.7.7.9.w.w.8.0.8.5.5.;.8.4.1.m | w.r.w.5.:.9.w.w.5.1.w.w.8.6.w.w.r.<.b ",
"..8.5.<.5.;.5.8.0.0.9.0.0.6.7.9.e.e.*.v } r.r.5.5.6.1.1.5.1.8.w.r.w.1.,.0.0.<.b ",
"#.w.=.1.5.5.8.7.0.8.w.w.5.5.8.9.0.w.<.m ' 9.8.;.&.5.5.[ &.;.8.w.w.w.5.1.7.7.@.v ",
"#.9.8.w.6.9.w.9.8.2.5.w.w.5.7.w.2.8.1.m I ,.5.5.<.5.7.8.<.8.w.5.>.;.1.5.<.8.=.v ",
"~ ;.5.5.<.;.1.1.1.;.;.;.<.;.&.2.;.[ [ v ~ ;.1.*.5.2.,.1.<.5.5.5.;.*.;.&.[ ,.*.v ",
"M b g l g b b g f b l b b b f v m f f n N v b b b b m b b l g b b b b b l b g n "
};
