/* XPM */
static char *result[] = {
/* columns rows colors chars-per-pixel */
"40 40 123 2 ",
"   c #020202",
".  c #070708",
"X  c #0B0B0B",
"o  c #141414",
"O  c #1B1B1B",
"+  c #242424",
"@  c #272728",
"#  c #2C2C2C",
"$  c #2D302C",
"%  c #32302A",
"&  c #302E30",
"*  c #343434",
"=  c #383336",
"-  c #3C313A",
";  c #3B3B3B",
":  c #42323E",
">  c #42403D",
",  c #434344",
"<  c #4C4C4D",
"1  c #54514A",
"2  c #58544C",
"3  c #514A50",
"4  c #545454",
"5  c #5F5C57",
"6  c #575758",
"7  c #5B5B5C",
"8  c #614B5C",
"9  c #62605A",
"0  c #5F5F60",
"q  c #6C5967",
"w  c #7D5F76",
"e  c #636364",
"r  c #666866",
"t  c #67686A",
"y  c #6B6B6B",
"u  c #70666F",
"i  c #777366",
"p  c #7B766A",
"a  c #7E796D",
"s  c #6E6E71",
"d  c #7B6276",
"f  c #7B6B77",
"g  c #737374",
"h  c #7F7B70",
"j  c #767678",
"k  c #787078",
"l  c #77787A",
"z  c #7B7B7C",
"x  c #817C6E",
"c  c #81627A",
"v  c #837E71",
"b  c #668863",
"n  c #8C846E",
"m  c #868173",
"M  c #8A8475",
"N  c #938C7B",
"B  c #8A6A82",
"V  c #837E82",
"C  c #838384",
"Z  c #87878A",
"A  c #8B8B8B",
"S  c #8A9D88",
"D  c #97938B",
"F  c #8D8E90",
"G  c #8F9094",
"H  c #949494",
"J  c #989693",
"K  c #9D9991",
"L  c #97969A",
"P  c #97989D",
"I  c #9C9B9C",
"U  c #A29D92",
"Y  c #A7A092",
"T  c #A5A29B",
"R  c #A9A59D",
"E  c #ACA89F",
"W  c #9C9DA1",
"Q  c #A98AA2",
"!  c #AB93A6",
"~  c #B19EAE",
"^  c #9FA0A3",
"/  c #A3A3A3",
"(  c #A9A6A1",
")  c #A6A9A6",
"_  c #ADAAA4",
"`  c #A4A5AB",
"'  c #ABABAB",
"]  c #B1AEA5",
"[  c #B1AEA8",
"{  c #AEB1AE",
"}  c #B4B0A6",
"|  c #B5B2AC",
" . c #B8B5AF",
".. c #ACADB3",
"X. c #AFB1B8",
"o. c #B1B2B6",
"O. c #BAB7B1",
"+. c #BBB8B2",
"@. c #B3B4BA",
"#. c #B8B7B8",
"$. c #B7B8BD",
"%. c #B9BABD",
"&. c #B1C2AF",
"*. c #B1D5AE",
"=. c #BBCDB9",
"-. c #BCBDC2",
";. c #C1BDC1",
":. c #BFC0C5",
">. c #C1C2C6",
",. c #C4C5CA",
"<. c #C7C8CC",
"1. c #C9CACE",
"2. c #CFD2CF",
"3. c #CDCDD2",
"4. c #CFD0D4",
"5. c #D1D2D6",
"6. c #D5D5D9",
"7. c #D7D8DC",
"8. c #D9DADE",
"9. c #D1E4CF",
"0. c #DDDDE1",
"q. c #DFE0E3",
"w. c #E1E1E4",
/* pixels */
"U _ H ( | [ [ [ ` [ ! ( { R  .|  .| _ N Y _ | | O.| | O.| _ | ' | +.| [ ' [ ' N ",
"T 5.1.3.8.5.6.7.0.1.4.4.5.6.0.q.7.5.<.M T -.-.,.4.6.6.5.1.3.8.6.7.0.7.7.3.1.;.M ",
"| 5.5.8.3.,.0.5.6.3.5.-.4.7.5.6.7.3.,.m R 4.,.3.3.0.8.3.>.-.$.,.0.0.7.7.,.7.,.v ",
"[ 0.5.0.7.<.7.6.0.0.1.4.8.q.5.7.4.:.$.x R 3.5.0.3.4.,.4.5.4.<.-.8.8.7.0.7.4.o.v ",
"[ 0.7.7.0.8.,.5.0.4.-.,.5.-.0.w.q.<...a _ 1.6.8.5.0.1.3.6.7.,.-.8.7.7.5.5.-.@.m ",
"[ 6.6.5.4.0.7.5.0.0.0.0.6.0.4.5.0.5.:.p D =.5.-.:.6.:.,.,.3.5.3.5.8.5.5.0.4.:.a ",
"[ 6.6.5.0.0.1.4.0.3.3.0.0.0.` X.4.8.$.1 3 A >.3.1.6.6.5.6.0.8.5.8.0.5.6.3.5.-.a ",
"_ <.,.3.7.3.0.5.0.6.5.4.;.-.G z A ) j = = , k ..-.1.6.6.3.5.7.8.0.7.7.6.7.6.,.v ",
"_ ,.3.7.<.7.-.;.0.6.0.6.>.W 0 ; , 1 6 u w : & e ` 3.,.3.5.,.3.6.6.6.0.3.3.3.,.v ",
"J <.3.,.0.0.X.4.4.-.0.5.,.s & 8 q < < c Q f 4 6 s G :.3.5.5.1.6.4.>.6.5.8.3.o.v ",
"( 6.3.3.0.-.W 0.5.-.1.3.o.s - B ! V 6 y I / ! H t 6 C $.6.8.0.0.<.,.1.<.3.0.,.a ",
"[ 0.3.7.w.6.4.0.0.3.4.<.P 0 , g I / I I / ' ..' A r < z o.,.4.5.,.<.3.:.1.6.,.v ",
"O.0.5.3.3.6.1.3.0.0.0.` 6 < s Z H I / / P F C b C C y < 0 o.3.8.1.8.8.7.8.4.` i ",
"| 7.7.5.X.3.,.6.,.-.5.F - , Z H V l H ) J r > ; q A A 4 3 L <.6.7.5.5.8.7.8.@.a ",
"[ 5.-.3.@.,.0.q.1.-.5.W , < C l g C I ' ) ^ r $ 4 ^ ;.! c u / 4.4.-.3.q.7.6.-.p ",
"[ 4.<.>.5.0.q.7.1.0.-.-.F 0 0 t j z L ( +.7.&.b S 2.w.~ d k W ,.8.4.5.1.5.7.,.m ",
"R ,.5.6.8.8.8.6.,.5.5.4.:.g ; y Z j h A T %.=.*.9.6.^ b G -.X.3.0.3.,.-.1.8.1.m ",
"( %.1.,.5.2.6.w.3.6.,.7.:.I 7 7 l A z z H I ) { { D g L ;.;.3.0.0.5.1.8.3.7.>.m ",
") >.,.@.%.o.,.>.$.@.,.:.....z 1 9 F I I I / H g 6 4 g ^ <.;.3.;.3.1.4.1.$.$.P x ",
"N M M M m p x m x m n m p 1 * 4 C L J H H H H A z 6 * 2 x v v v n m x m a v v M ",
"Y ] R R ] _ E K Y _ } _ K 5 = e A C 4 0 v 0 6 A I s # 9 ! _ E } [ ] _ ] ] R R N ",
"_ 0.5.-.,.>.@.H C ` %.%.z 0 e r b z - < z , = C / g * g :.8.8.8.4.6.8.0.8.4.<.m ",
") :.4.6.<.@.z g g z ^ L > ; r l L V ; 6 L 4 + 4 Z s * y :.8.8.8.3.3.0.5.6.3.>.m ",
"| 7.3.5.4.@.j z j 7 r 7 + o ; t L V , e -.I , + < 4 $ z 1.4.5.q.5.5.7.,.1.0.3.m ",
"[ 8.3.6.0.<.` Z 0 4 < , * O o $ t l ; r 1.%.r O O + O 4 L >.6.8.0.3.6.8.0.q.,.a ",
"[ 8.5.6.6.,.<.,.I e 6 r 6 # . X = < # 4 J r # + o .   o , A >.,.8.3.,.1.6.0.:.a ",
"[ 5.5.8.,.4.8.8.3...g , @ o     O @ + @ * O # < # .     X & C >.3.7.>.,.5.q.3.a ",
"[ 3.5.8.7.6.q.6.1.4.#.j # .     # 7 t < % @ # # o         O s 3.3.5.4.5.3.5.1.v ",
"` 5.3.7.q.6.8.4.3.6.6.$.Z , o X + > , * O O o       . o @ t W 8.0.,.5.4.3.5.-.a ",
"_ 4.5.4.6.6.;.>.4.8.3.3.-.P g e , o X X . X . . . + 4 e Z ..o.6.8.<.8.6.3.6.,.m ",
"| 6.5.3.-.3.-.,.6.6.8.8.4.6.3.%.G 6 < % , < < < , j ..-.$.3.<.6.7.7.6.6.3.w.4.x ",
"_ 4.4.0.-.X.o.X.0.4.6.$.$.8.1.,.,.,.#.p U @.` @.o.:.4.5.-...:.6.8.3.6.8.5.8.1.m ",
" .7.0.8.3.,.3.5.7.7.7.8.3.8.5.:.-.,.-.p R 6.3.3.8.,.3.1.5.X.<.7.8.8.7.0.5.4.,.x ",
"| ;.5.8.6.3.3.0.5.6.7.5.:.7.0.7.3.o.-.x R :.7.6.5.3.,.5.0.0.3.5.0.6.5.6.3.6.,.x ",
"| >.3.3.8.5.5.7.0.8.6.0.6.3.3.-.6.3.1.v ] 0.w.0.3.:.8.0.0.3.3.0.0.7.4.0.0.w.<.v ",
"O.7.3.>.3.-.3.6.0.0.7.8.0.4.5.7.w.0.$.m ] w.q.3.3.5.,.,.4.,.5.0.w.q.,.>.8.8.,.v ",
"O.0.-.>.3.3.6.5.8.7.0.0.1.1.0.7.0.0.>.m ( 7.6.-.@.3.3.` @.-.6.8.0.8.3.<.5.5.o.a ",
"O.7.7.0.3.0.0.8.5.<.3.0.0.3.4.0.3.5.,.m K >.3.3.,.3.5.6.,.6.0.5.>.-.3.3.>.7.-.a ",
"U -.1.3.>.-.,.,.1.-.-.-.,.-.X.3.;.` ` x U -.,.-.3.3.>.<.,.3.3.1.-.$.-.o.` :.$.x ",
"N h h h h v v a p v v v h v p h v p p M N v v v v v m v v h a v v v v x v v a n "
};
