/* XPM */
static char *_7288fb321d348e4cb611f511e02634fNGn2XYsfNI8oCQoM[] = {
/* columns rows colors chars-per-pixel */
"40 40 184 2 ",
"   c #1E061F",
".  c #280B1F",
"X  c #3F101B",
"o  c #130422",
"O  c #170826",
"+  c #1A0C29",
"@  c #1F112E",
"#  c #24172C",
"$  c #271732",
"%  c #301F39",
"&  c #2F233D",
"*  c #43131C",
"=  c #4B161C",
"-  c #4F181C",
";  c #531718",
":  c #521B1D",
">  c #611D15",
",  c #5E211D",
"<  c #69251B",
"1  c #7C2616",
"2  c #782A1A",
"3  c #4C1F20",
"4  c #531C21",
"5  c #5B2823",
"6  c #442A39",
"7  c #4C323F",
"8  c #59383C",
"9  c #692D28",
"0  c #6D3934",
"q  c #352A43",
"w  c #362A43",
"e  c #3D324A",
"r  c #422D41",
"t  c #4E3644",
"y  c #443847",
"u  c #533D4D",
"i  c #473E56",
"p  c #4E4553",
"a  c #5D4755",
"s  c #5B5358",
"d  c #694846",
"f  c #7D4D43",
"g  c #795749",
"h  c #695A56",
"j  c #6C665D",
"k  c #746D5D",
"l  c #5C4E61",
"z  c #5E5669",
"x  c #655C6B",
"c  c #655D71",
"v  c #736E61",
"b  c #767163",
"n  c #7B7565",
"m  c #7F7867",
"M  c #7C7769",
"N  c #7E796A",
"B  c #676175",
"V  c #6D6578",
"C  c #766D7A",
"Z  c #832D19",
"A  c #8C341B",
"S  c #8C3A1F",
"D  c #953519",
"F  c #983B1A",
"G  c #A23F1C",
"H  c #853820",
"J  c #9C401B",
"K  c #A94713",
"L  c #A3421C",
"P  c #AA451D",
"I  c #AD491E",
"U  c #B54D1F",
"Y  c #B5511F",
"T  c #AA4D20",
"R  c #B44F20",
"E  c #B35220",
"W  c #BD5421",
"Q  c #BD5C22",
"!  c #B2643A",
"~  c #C25D23",
"^  c #C66224",
"/  c #C96725",
"(  c #CD6C26",
")  c #CF7329",
"_  c #D17329",
"`  c #D6792A",
"'  c #D87928",
"]  c #D97F30",
"[  c #875A4A",
"{  c #935E4F",
"}  c #92604E",
"|  c #816451",
" . c #957257",
".. c #AC6F4F",
"X. c #827C6D",
"o. c #807077",
"O. c #837E71",
"+. c #DC832D",
"@. c #E58A2B",
"#. c #E18E34",
"$. c #EB9532",
"%. c #E99B38",
"&. c #F0A63D",
"*. c #A4825F",
"=. c #8B8473",
"-. c #928A74",
";. c #938B78",
":. c #C58052",
">. c #EFAE45",
",. c #F4B249",
"<. c #CC8D63",
"1. c #CE9567",
"2. c #D79869",
"3. c #DEA16D",
"4. c #E4AB72",
"5. c #E9B476",
"6. c #F3C053",
"7. c #FAC77F",
"8. c #767183",
"9. c #7A7485",
"0. c #7F7989",
"q. c #827684",
"w. c #837D8C",
"e. c #8B8687",
"r. c #908E8B",
"t. c #99968F",
"y. c #898493",
"u. c #8B8594",
"i. c #938D9B",
"p. c #9D9A96",
"a. c #94939E",
"s. c #A39D8F",
"d. c #A29C96",
"f. c #A5A29C",
"g. c #ACA79A",
"h. c #A9A59D",
"j. c #9997A3",
"k. c #9C9BA6",
"l. c #A09DA8",
"z. c #9FA0A9",
"x. c #A9A6A1",
"c. c #ADAAA4",
"v. c #A3A2AC",
"b. c #A6A8AF",
"n. c #B2AEA5",
"m. c #B2AFA8",
"M. c #B6B1A6",
"N. c #B5B2AA",
"B. c #B9B5AC",
"V. c #A6A6B1",
"C. c #AAAAB3",
"Z. c #ACACB4",
"A. c #AFB0B7",
"S. c #AFB1B8",
"D. c #B3B4BB",
"F. c #B9B7BF",
"G. c #B7B8BE",
"H. c #B8B9BF",
"J. c #F4CC83",
"K. c #FAD388",
"L. c #B6B7C1",
"P. c #BCBDC4",
"I. c #BFC0C6",
"U. c #BEC0C9",
"Y. c #C0C1C7",
"T. c #C4C5CA",
"R. c #C7C8CD",
"E. c #C7C9D0",
"W. c #CCCDD2",
"Q. c #CFD0D4",
"!. c #CFD1D8",
"~. c #D1D2D6",
"^. c #D4D5DA",
"/. c #D7D8DC",
"(. c #DADBDE",
"). c #DBDCDF",
"_. c #DCDDE0",
"`. c #DEDEE2",
"'. c #DFE0E3",
"]. c #DFE0E4",
"[. c #E2E2E5",
"{. c #E5E6E9",
"}. c #E8E9EC",
"|. c #E8EAF0",
/* pixels */
"s.c.r.h.m.c.c.c.c.m.p.x.N.f.N.N.B.N.x.;.g.c.m.B.N.c.N.B.N.c.N.c.N.B.m.m.c.n.c.;.",
"p._.E.W.[./.^._._.W.^.W.^./.[.{.(.(.W.X.f.U.P.R.^._.^./.W.W._._._.]./._.~.E.Y.=.",
"N.^.~._.R.P.[.~./.W.^.P.Q.^.~.^.^.W.R.m h./.P.R.R._.(.R.Y.G.A.T.(.[.^.(.I.).W.m ",
"c._.~.(.(.T.).~.[.~.T.^._.[.W.^.W.P.P.b c.W.^._.Q.W.T.^.~.Q.R.P._.(.(.(.(.~.A.X.",
"n.{.^./._._.I.~._.^.P.T.^.G.(.[.{.R.V.m n.W.~.[.^.(.T.W.^.).R.G._.^.^.W.(.Z.F.O.",
"c.^.~.^.W._.(.~.(.).[.(.^._.^.Q._.~.T.n n.E.^.D.P./.P.Y.Y.R.~.T.^._.^.~._.^.T.b ",
"c./.^.Q.[._.T.~.'.W.W.(.[.[.k.P.'.[.^.b n.^.^.^.R.(.(.~.(.[.(.~./._.~.^.E.^.P.n ",
"c.W.Y.W.(.R.[.~./.^.~.W.P.Z.8.i.i.u.y.s d._.~.R.P.T.(.^.W.~.).).'.^./.^.(.^.R.N ",
"c.T.R.[.T.'.H.P.(.(._.^.R.a.+ o o o o + e._.^.^.^.[.T.T.^.T.T.(.^.^.[.E.Y.W.R.m ",
"r.W.W.Y._._.Z.^.~.Z._.W.0.u ; > < ; ; - t y.R.R._.W.~.~.Q.^.T.^.~.P.(.~._.~.Z.O.",
"h./.~.E._.P.a.[.W.P.F.i.t : Z K K F A 1 * u v.C.(.~.W././.(.'.'.T.T.R.R.T.{.E.b ",
"c.{.W.^.{.^.~._.^.W.w.% 9 F U ( ' ( E D 1 4 $ j.T.z.(.'.[.W.~.^.T.T.W.G.T.(.E.M ",
"m.].W.T.W./.R.W.T.y.a = A R ^ ( ( ^ Q E L < o i._.W.W.{.[./.Q.(.T._.(./.[.~.k.v ",
"N._._.(.b.~.P.^.C.& * Z P ~ _ ^ W ~ / ( ~ H . q.T.(.(.Y.~.^.^.^.(.^.~._.Q.[.D.n ",
"n.^.G.W.A.T.{.{.V.q = D E ( @._ ( #.+./ ^ T 2 8 z Y.[.E.W.~.{._.~.D.R.[.^.(.P.v ",
"c./.T.P.~.(.[.^.b.q : P ~ ` $.+.+.>.%.] ` / E 3 e F.^.}.W.W.W.R._.Q.(.R.~.(.R.m ",
"f.Y.^.^.(._.(.^.l.q 5 W / +.&.$.%.6.,.>.$.@.) 5 y F.~._.].~.Z.W._.W.Y.F.T._.W.X.",
"h.P.W.R.~.W.^.}.C.q : P Q _ +._ _ %.&.&.+.( ~ S 9 a j.^./.T.Q.[.{.~.T.{.W._.T.O.",
"c.W.R.L.P.Z.W.T.k.& = D Y ^ / ~ ^ ' $.%.` ^ W L <   B Y.T.Y.(.R.Q.~./.W.P.P.j.M ",
";.m X.X.m k b m h # X 1 P W W ~ / _ +.@.` ( ^ F >   y m m n m n m n b m k m n -.",
"s.n.h.h.B.M.M.g.f.x 7 * 2 F P I E ~ ( ' ( Q J ! ..f d x d.g.g.n.B.M.c.M.M.h.h.;.",
"c.|./.L.T.T.E.].Y.v.B % 4 < Z Z A I W ~ ~ I 1 :.4.1.f 6 u.P.L.~.~._.]._._.~.E.N ",
"x.P.~./.R.^.T.R.~.~.C.q.r . . . * A G L Y I D ..2.5.<.{ t q e v.R.R.'.W.^.W.I.X.",
"n.(.W.~.~.'.W._.(./.W.D.0.x i p u 5 , < < < , 0 } 2.3.1. .g g o.9.^.(.Y.T.{.~.N ",
"c.[.R.^.[.W.P.(.[.(._.(.^.W.A.V.y.q + O O + + + 6 ..2.7.K.J.4.d @ R./.(._.{.R.b ",
"c._.^.~.(.Y.R._.[././.W.).(.Q.T.F.k.u.p s 8.8.V l 6 *.K.4...8 C k.~.T.T.^.[.P.n ",
"n./.W._.Y.~._./.(.[.W.R.W.P.~.[./.{.U.j t.D.P.i.V @ | 5.3.[ O w.F._.P.T.~.[.~.n ",
"c.W.~._.(.~.'.^.T.^.{.~.W.F.F.[._.~.C.b n.{.R.v.9.# d <.5. .O 9.k.Q.~.^.E.^.W.M ",
"x.^.R.^.[.^.'.~.W.^.(.W.^._.^.T.W.~.Q.X.n./.~.W.Z.V a 8 d h x Z.W.Y.W.W.W.^.P.n ",
"x.^.~.W.(.^.P.P.W._.R.Q.Y.E.^.^.~.T.P.k M._.D.~.~.D.C q e c a.E.(.T.).(.W.^.E.m ",
"n./.~.Q.Z.(.F.E.(.^.(._.Q._._.Q.Q.~.E.m M.!.P.^.D.~.F.Z.v.Y.Y.~.(.(.^.^.W.{.~.M ",
"x.~.W._.P.b.D.v.{.W.^.D.S.[.T.P.W._.~.b M.W.G.T.P.W.^.^.G.v.Y.^.(.R.^./.W.'.W.m ",
"N._._.(.~.R.R.~./.^.^._.W.(.~.Y.H.R.P.k h._.T.W.[.Y.W.T.(.v.R.(.(.).^.{.^.W.W.n ",
"N.P.~.(.(.R.W.[.Q.^.(.^.P./.[._.R.C.U.n h.P.(.~.^.W.Y.Q.[.[.W.~._.^.Q.~.R.(.E.b ",
"B.Y.R.R._.^.~.^.[.).~._.^.W.W.D./.~.!.n M.[._.[.E.H._.'.(.W.T.(.[.~.Q.[._.{.R.m ",
"N._.R.T.E.H.W.^._.(.^.)._.W.Q._.[.{.D.m n.}.[.E.~.^.Y.R.^.T./.[.[.{.Y.P._.(.R.M ",
"B.[.Z.T.~.E.^.W._.^.[.[.T.R.(./._._.T.m h._.^.P.b.Q.W.k.D.A.^.(._.).W.T.~.^.Z.M ",
"B._.(.[.Q._.[._.^.R.R.{.[.~.^.[.R.(.Q.m t.T.W.~.Y.~.^._.T.(.{.^.T.D.W.~.I.[.P.n ",
"f.P.~.Q.T.P.E.R.W.I.P.P.R.I.S.~.Y.v.V.n h.T.W.F.^.W.T.W.R.^.E.Q.I.G.Y.F.v.T.P.m ",
"-.n n n M M m n v M M M n m b n X.n k -.;.b m m M m X.M M n b M m X.M m m m b =."
};
