/* XPM */
static char *result[] = {
/* columns rows colors chars-per-pixel */
"40 40 243 2 ",
"   c #1D4F58",
".  c #155C63",
"X  c #205D64",
"o  c #0A6B77",
"O  c #196D76",
"+  c #19727C",
"@  c #15737E",
"#  c #09646E",
"$  c #346E76",
"%  c #34777D",
"&  c #296B74",
"*  c #0B7B8A",
"=  c #1B7984",
"-  c #177A87",
";  c #177E90",
":  c #257D89",
">  c #267B85",
",  c #377B84",
"<  c #1A828F",
"1  c #0A8898",
"2  c #138291",
"3  c #1D8996",
"4  c #148D9C",
"5  c #1B8D9C",
"6  c #198796",
"7  c #1B909E",
"8  c #0E828E",
"9  c #2C818C",
"0  c #22838E",
"q  c #38828C",
"w  c #248593",
"e  c #2B8692",
"r  c #238A95",
"t  c #278B99",
"y  c #348996",
"u  c #2C939F",
"i  c #27909D",
"p  c #39939F",
"a  c #33929C",
"s  c #188EA2",
"d  c #0E98AA",
"f  c #1A92A3",
"g  c #1C96A9",
"h  c #149BAD",
"j  c #1B9AAC",
"k  c #1595A8",
"l  c #1B9DB2",
"z  c #169DB3",
"x  c #258FA2",
"c  c #2492A4",
"v  c #2B95A4",
"b  c #2399A7",
"n  c #2B9AA6",
"m  c #239BAC",
"M  c #2C9BAC",
"N  c #2196AA",
"B  c #3295A4",
"V  c #359AA5",
"C  c #3E9AA5",
"Z  c #349CAB",
"A  c #3B9EAC",
"S  c #3E95A4",
"D  c #249CB2",
"F  c #2A9DB1",
"G  c #339FB2",
"H  c #3B8FA0",
"J  c #1AA3BB",
"K  c #1BA5B9",
"L  c #33A1AE",
"P  c #39A1AE",
"I  c #23A1B3",
"U  c #2CA3B4",
"Y  c #23A6BC",
"T  c #2BA4B9",
"R  c #23A9BE",
"E  c #2BAABC",
"W  c #2CA9B6",
"Q  c #34A5B4",
"!  c #3CA4B3",
"~  c #32A6BB",
"^  c #33ABBC",
"/  c #3BABBC",
"(  c #3AA8B8",
")  c #3EB2BE",
"_  c #35B1BD",
"`  c #28A8B6",
"'  c #428993",
"]  c #459AA8",
"[  c #5E96A3",
"{  c #4BA2AD",
"}  c #45A3AF",
"|  c #42A5B5",
" . c #44A9B5",
".. c #4BA9B5",
"X. c #45ABBA",
"o. c #4BADBB",
"O. c #4BA5B4",
"+. c #56AAB8",
"@. c #45B1BE",
"#. c #4CB1BE",
"$. c #53B3BF",
"%. c #1CACC4",
"&. c #1EB2CA",
"*. c #1DBAD4",
"=. c #25ACC3",
"-. c #2BACC3",
";. c #22AEC8",
":. c #26ABC6",
">. c #33ADC1",
",. c #3CAFC3",
"<. c #39AEC9",
"1. c #26B1C5",
"2. c #2DB2C4",
"3. c #24B2CA",
"4. c #2CB4CB",
"5. c #2CBACD",
"6. c #33B3C4",
"7. c #3BB3C3",
"8. c #33B6CB",
"9. c #3BB5CB",
"0. c #34BBCC",
"q. c #3DBACC",
"w. c #39B8C6",
"e. c #2CBDD4",
"r. c #28BBD7",
"t. c #33BDD3",
"y. c #3BBDD2",
"u. c #31B7D4",
"i. c #46AFC1",
"p. c #44B4C4",
"a. c #4BB4C3",
"s. c #44B9C6",
"d. c #4ABAC6",
"f. c #44B6C9",
"g. c #44BBCB",
"h. c #4CBBCB",
"j. c #4AB5CA",
"k. c #52B5C3",
"l. c #54BAC6",
"z. c #53BACA",
"x. c #5AB8C7",
"c. c #43BED3",
"v. c #49BED3",
"b. c #29C4DA",
"n. c #32C0D6",
"m. c #3DC2D4",
"M. c #34C4DB",
"N. c #3CC4DB",
"B. c #3DCADD",
"V. c #36CBDC",
"C. c #2DCCE4",
"Z. c #29CCE8",
"A. c #33CCE4",
"S. c #3CCBE3",
"D. c #32C9E5",
"F. c #2CD1E8",
"G. c #32D2EB",
"H. c #3CD5EE",
"J. c #39D5E8",
"K. c #2AD8F3",
"L. c #3CDAF2",
"P. c #36D7F3",
"I. c #32E1F6",
"U. c #3EE2F4",
"Y. c #3CE6FB",
"T. c #4CC1CE",
"R. c #45C1CE",
"E. c #44C3D4",
"W. c #4BC3D3",
"Q. c #43C4DB",
"!. c #4BC5DA",
"~. c #44CBDC",
"^. c #4BCADC",
"/. c #4AC8D6",
"(. c #54C3D3",
"). c #52C9D6",
"_. c #5BC9D6",
"`. c #54CBDC",
"'. c #5BCBDD",
"]. c #5BC6D4",
"[. c #54D2DE",
"{. c #4EC8D7",
"}. c #62CDDC",
"|. c #65C6D9",
" X c #66D3DF",
".X c #69C7D3",
"XX c #43CDE2",
"oX c #4ACDE2",
"OX c #53CDE1",
"+X c #44D2E4",
"@X c #4CD3E5",
"#X c #49DAE7",
"$X c #42D5EA",
"%X c #4BD6EA",
"&X c #45DAEC",
"*X c #4CDBEC",
"=X c #53D3E4",
"-X c #5CD4E3",
";X c #5BD9E7",
":X c #53D5E9",
">X c #5AD5E9",
",X c #55DCEC",
"<X c #5ADCEC",
"1X c #53DAE4",
"2X c #42DEF3",
"3X c #4CDDF2",
"4X c #48D6F2",
"5X c #53DDF1",
"6X c #5BDFF2",
"7X c #62DBEB",
"8X c #63D5E5",
"9X c #64DFF1",
"0X c #54E1ED",
"qX c #5DE1EC",
"wX c #42E4F3",
"eX c #4CE6F5",
"rX c #44EDFE",
"tX c #4DECFA",
"yX c #4BE6F5",
"uX c #53E4F2",
"iX c #5AE5F3",
"pX c #52EAF6",
"aX c #5BEBF5",
"sX c #53EDFB",
"dX c #5CECFB",
"fX c #58E5F9",
"gX c #4DF7FE",
"hX c #54F2FD",
"jX c #5CF5FC",
"kX c #5DFDFE",
"lX c #57FDFF",
"zX c #4BE2EE",
"xX c #62E4F3",
"cX c #61E9F4",
"vX c #62EDFA",
"bX c #6BEFFA",
"nX c #6AE7F4",
"mX c #63F5FD",
"MX c #6CF4FD",
"NX c #65F9FF",
"BX c #6DFBFE",
"VX c #72FDFF",
"CX c #7AFFFF",
/* pixels */
"( q v e , C ~.VXcXl l l d 1 7 W 7.@ 8 1 i o.M E n ! m.h.X.4.pXBX7X'. XxX^.3XXXaX",
"a.U l u % O 6 U >.-.Y %.K ( @.w.].( M j r v.oXE Q q.m / 7XoXpXBX<X8Xs.#X=X~.7.E.",
"hXb.l c w r 7 j =XM.4.=.b l.w.R.^.h._.(.i A oX5.0.5 2 2.cXbXVXiX'.>X0.W '.~ 5 9.",
"eX0.r w 3 {.iXjXiXG.8.4.R r 4.b.b E e.0.v M 8.-.2.n _ E XX:XXXa y W.h.Q `.,XG.L.",
"M ^ f 0 k W 0X#X>.H.H.M.^.@.F.I./ m -.! >.e.^.9.e.0.i.D :X<.] { >  .^.J.@XMX6.4 ",
"4 w._ K h r _ 3.XXrXg.G T.@.g.T.].T.Z X.F p.'.e.B.XXe | ,.| A { C _ #Xm.E.#X) * ",
"R 1.5.b.h W R.1XfXi. ._ P P ( s.l.#.U c.c.(.9X0X*X(.O ] +.q H O.m 6.p.) R./.E.q.",
"#X_ ^ 0.N.s. .bX8.6 q.E.w.R.w.l.' (.W.q.=XOX3XuX!.=Xf.: ' : G D 5.m.s.#X0X+XQ.dX",
"R...P >.B H 1X5XD ~.+XI ~.~.~.].$._.[.`.).S.2XvXq.s..Xz.! -.g K q.X.m n.tXm.9.~.",
").9 ! y : F 9.-.E.aXq.w.M.E T.o.].l.d.d. .W.^ ! T....X X`.a.p.a.T.-X7X#X~.n Z c.",
"X.X.;Xc F Z f Y y.:.Y E 2 6 0 0 C a d.@.@.e 5 8.7X .) `.bX(.-Xv.oXfX0X~.g.A y I ",
"X.V dX~ 7.y.8.B.^.v.4XE i I f ; 9 = = + + + +XU.s.u j I a.! xX^.@Xm.wXeXs.Z W ) ",
"a L %X7.}.U y.h.j.OXOX^ m =.7.r e V t = + f 4.b.r.>XbXi.q a.5X=X+X4.0._ Z /._ Z ",
"p p.OX0.Y 8.f.o.7XXXt.m.2.6./ r 0 0.M 6.@.L j 3.H.9X9Xx.{ c.y.1XjX`.s.W 5 d.T.B ",
"+.{ f.:X4.@.@ ( 6X6X<X@Xe.4.R w O 7 t n E I 8.8.~ a. X|.8X(.p.%X@X^.L.wXp.p.!.o.",
"+.E.$XhX#XQ e W A.C.eXuXN.q.0.- = S.z * 1.A.y.E.! a.] ] k.@.[.%XS.+XzX@X^ g.= ' ",
"=XrX3X`.`.`.a.y.pXC.2X%Xa.).].q i Y.M.W m.@X8Xk.$     X v %XnXuX2X2XXXf ; - V X.",
"0.oX-X'.oX>XQ.f.dXpX:X8X=XqX_.$.1.*.s.|.;X!.,.o.S , q k.q.<.Q.dXkX&X:.s ; j XXy.",
"E { +.@.g.z.$.(.fX<XM i.@.Q #.qXpX&X~ d.s.=Xe.D >.B Z B h.T.Y A.tXD O.j.D 4.4.>X",
"BX}.aX0X-X=Xh.:Xs.B ( h.p.^ l.( / W.z.(.).<X!.Z A ] B ; E.iXU.Y.%Xy k.a.8XoXf $X",
"3XhXuXbXVXdXmXT.c [.aXsXkX,X].= w F T.7X9X7Xj.N ; t T.:XM.N.zX$X3Xc z ;.3.G.Y D.",
"r.1.5X;XiX@X:X[.qXVXhXhX0Xu X . # ; E ].x.].7XX.Z Y 2.E V.5.q.n.6.`.&.K.OX].p.t.",
"+XI Q.i.! B T.VXaXBXkX#Xw.: o t 7 m 6 9 ] z.`.t p.7.J A.V.*Xv.z Q nX5Xy.v.vX6X/.",
"q.o b ]  .L S.iX<XmXuXeXm.P = o 5.2 # > q { OX>.q.s.2.0.*X,X<Xn.D.%X;X].uX5XE.mX",
"r.g W > y P F.2XD.6.~ fXo.' p = ~ x ; , O n XXXXv.p.7.[.L.Z.G.eXS.+X~.BXiXg.0XlX",
"=.n.j e  .T.wXS.u.F T M., = L { O.w w = r g g.xXQ.XX#XpXS.L.oX4XwXfXd.nX`.g.hXpX",
"k j N - b ) @X$X$X,.XXy.t J s p.q.s x v Y k j =X%XH.hXc.~ U v.5X$X!.9.=X,.[.lX#X",
":.J E f J h E #Xc.XXt.j.:X%X; ! Q.r + 2 h y.Q K dXmXN.D >.c -.VXuX=Xc.!.(.W.hXaX",
"%X$Xj Y %.h 1.BX>X$X6XQ.D.fXF ^ A a v E 5 =.2.*.mX@XT 4.y.y.z +XvX>X@X'.nX2XtXoX",
"L.%Xg / +XR ^.CXBX9XcXfXB.>XOXE v t._ @XI K d F.sX8.>.t.$XZ.=.%.$X^.q.k.iXgXjXD.",
"y.c.~ Y P.G.fXqXfX'.A T :XoXbX,Xn e.^ q.8.e.*.G.*X8.S.8.n.P.M.&.u.@XN g.kXtXtXyX",
"j.S.wXK.K.<X| m y.z./ :.oXmXdXiX,.B.M _ @X8.%.H.xXoXu.M.Z.H.S.=.-.3.-.4.6.r.r.v.",
"0XhXgX2XxXf.j.6.:.j.-X<.U xXBXg.U T >.q.+X8.b.pXiX1XN.A.Y.G.XXr.P.c :.3.* K 3./ ",
"jXsXB.'.}.OXv.U h 4.7X'.0.-XnXt U -.w.6.E 2XJ.wXNX[.~.I.2Xu.:.P.t.D e.l s z &.e.",
"h E s.(.j.z.j.r A XXv.,XpXMX).,.aX0.hXU 0.U.L.&XfX=XmXe.J u.D.G.l D D = 4 h h d ",
"7.E #.x.X.x p S a.z.G -.( Q.OXcX[./ 1.2 -.-.E =X^.^.;Xa.:X5X-.D F D v 4 I Z.J Z ",
"5Xu + +.$ $ ] BXZ U Z v h.n I s.r T.E k z z 7.Q.>X=Xp.>X4X9XOXk.z.(...L @.@X/ 9.",
"P.E.9 > % ] '.xXqX2.; 1 ( c 3 > P Q K V.K U 1XI.tX*X1.U.<.+.8XO.{ x.o.@./ ..v +X",
"rX5Xo.^.7X).! xXVX<X5 - w 4 B a m.~.g 4 5 ..0.K.hX@XXXl.[ |.dX<X$.`.h.g.s.X.h.eX",
"B.M h.0X$.p _.BXmX^ v Z r 8 U <XNXN.* 7 0 V z K 7.A  .x.] oXsXY.S.-X_.=X=XoX5Xn."
};
