/* XPM */
static char *result[] = {
/* columns rows colors chars-per-pixel */
"40 40 140 2 ",
"   c #000000",
".  c #0A0303",
"X  c gray4",
"o  c #180708",
"O  c #141415",
"+  c #1E1D19",
"@  c #262523",
"#  c #272728",
"$  c #2B2B2C",
"%  c #332D2F",
"&  c #34312A",
"*  c #3E322D",
"=  c #2F2F30",
"-  c #323233",
";  c #7D1B1B",
":  c #512B2C",
">  c #702120",
",  c #72252B",
"<  c #7C2A28",
"1  c #743332",
"2  c #4A423E",
"3  c #414142",
"4  c #4C4C4D",
"5  c #4F4F51",
"6  c #515153",
"7  c #59595D",
"8  c #635E5F",
"9  c #746D5D",
"0  c #606165",
"q  c #696263",
"w  c #666668",
"e  c #6C6D6F",
"r  c #736E61",
"t  c #767164",
"y  c #7B7565",
"u  c #7F7867",
"i  c #7C7769",
"p  c #7E796A",
"a  c #77787A",
"s  c #831B1B",
"d  c #921E1E",
"f  c #86252D",
"g  c #89262F",
"h  c #962224",
"j  c #9B2224",
"k  c #9E2528",
"l  c #9D2929",
"z  c #8F312F",
"x  c #8C2F37",
"c  c #932D31",
"v  c #803938",
"b  c #983332",
"n  c #A72323",
"m  c #B12525",
"M  c #A32D37",
"N  c #A72E38",
"B  c #BD2F35",
"V  c #BF3836",
"C  c #B03039",
"Z  c #BA3A3E",
"A  c #C62929",
"S  c #C82B2C",
"D  c #CC2F33",
"F  c #CC3035",
"G  c #C13138",
"H  c #CE3339",
"J  c #CC383D",
"K  c #D33837",
"L  c #D0343B",
"P  c #D33A3C",
"I  c #D93F3E",
"U  c #BF413E",
"Y  c #CF3940",
"T  c #D43741",
"R  c #D63A43",
"E  c #D93E44",
"W  c #D83C49",
"Q  c #817C6C",
"!  c #837E71",
"~  c #CD4643",
"^  c #D04744",
"/  c #DC4240",
"(  c #DE444A",
")  c #E14946",
"_  c #E0474A",
"`  c #E54D4B",
"'  c #8D846C",
"]  c #868070",
"[  c #8F8876",
"{  c #928A74",
"}  c #938B78",
"|  c #98917D",
" . c #8D8C8D",
".. c #99968F",
"X. c #9E9990",
"o. c #93959F",
"O. c #9E9C98",
"+. c #A39D8F",
"@. c #A9A292",
"#. c #A5A29C",
"$. c #A9A59D",
"%. c #9A9CA5",
"&. c #A9A6A1",
"*. c #ADAAA4",
"=. c #A2A4AC",
"-. c #A7A8AF",
";. c #B2AEA5",
":. c #B2AFA8",
">. c #B5B1A6",
",. c #B5B2AA",
"<. c #B9B4AD",
"1. c #A5A7B1",
"2. c #A7A9B0",
"3. c #ACADB4",
"4. c #AFB0B7",
"5. c #AFB1B8",
"6. c #B3B4BB",
"7. c #B7B8BE",
"8. c #B8B9BF",
"9. c #B6B8C0",
"0. c #BCBDC4",
"q. c #BFC0C6",
"w. c #BEC1C9",
"e. c #C0C1C7",
"r. c #C4C5CA",
"t. c #C7C8CD",
"y. c #C9CACE",
"u. c #CCCDD2",
"i. c #CFD0D4",
"p. c #CFD1D8",
"a. c #D1D2D6",
"s. c #D4D5D9",
"d. c #D7D8DC",
"f. c #DADADE",
"g. c #DDDEE1",
"h. c #DFE0E3",
"j. c #E2E2E5",
"k. c #E5E6E9",
"l. c #E7E9EE",
"z. c #E8EAF0",
/* pixels */
"+.*. .&.:.*.*.*.;.>.O.&.,.#.,.,.,.,.&.} @.*.:.,.,.*.,.<.,.*.,.*.,.<.:.:.*.*.*.} ",
"O.g.y.u.j.d.d.g.f.u.s.u.s.s.k.k.d.g.u.p #.w.0.u.d.g.s.d.u.u.g.g.f.j.d.g.a.u.r.] ",
":.s.a.g.t.0.j.a.s.y.s.e.p.s.a.s.s.u.y.i @.d.e.y.r.g.d.y.e.7.4.r.f.j.d.f.0.g.u.i ",
"*.g.p.g.d.r.g.p.j.s.r.s.g.j.u.s.u.0.q.t *.u.s.g.p.u.r.s.a.u.u.9.f.f.d.f.d.s.3.Q ",
":.k.s.s.g.g.e.a.g.s.8.r.d.7.f.j.k.y.-.u ;.u.a.j.a.f.r.a.s.d.y.9.g.d.s.u.f.3.7.! ",
"*.s.s.s.u.g.d.a.f.f.j.f.a.g.s.i.f.s.t.y *.u.d.6.e.f.0.e.r.t.a.t.s.g.s.a.g.s.r.t ",
"*.d.s.u.j.g.r.a.h.i.u.f.j.h.%.8.j.j.s.9 ;.a.s.s.t.f.f.s.d.j.d.a.f.f.s.s.u.s.9.y ",
"*.u.r.u.d.u.j.a.f.s.a.y.q.r.6.j.h.s.u.u ;.g.a.y.0.e.d.s.u.a.f.g.g.s.f.s.d.d.y.Q ",
"*.r.y.j.r.h.8.8.f.f.h.s.t.s.y.d.d.6.u.u :.g.s.s.s.j.r.r.s.r.r.f.s.s.j.y.e.u.u.i ",
" .u.u.e.h.h.3.s.a.4.g.s.d.u.d.y.j.f.t.Q :.d.y.u.h.u.a.a.i.s.r.a.a.0.f.a.j.s.4.Q ",
"&.s.a.y.f.8.o.k.X                                           3 j.t.r.y.r.r.k.y.t ",
":.k.u.s.k.s.a.4 b b b b b b b b b b c f g c b b b b b b b b v e r.r.u.7.r.f.y.i ",
":.g.i.t.u.a.4 z ` ` ` ` ` ` ` ` ` ` ` W ( _ ` ` ` ` ` ` ` ` ~ v w j.d.f.j.p.%.r ",
",.g.g.d.-.t.  F ` ` ` ` ` ` ` ` ` ` ` ( _ ` ` ` ` ` ` ` ` ` ) l - s.a.g.u.k.9.t ",
"*.s.7.u.-.6   A ( ( ( ( ( ( ( ( ( ( ( P E ( ( ( ( ( ( ( ( ( I d O 0 y.j.s.d.0.r ",
":.d.r.5.8 < < I E W W W W W W W W W W F L W W W W W W W W W E V < 1 a y.s.f.u.p ",
"#.r.s.q < ` ` ` _ W W W W W W W W W W D L W W W W W W W W W _ ` ` ^ 1 7 r.g.u.Q ",
"&.9.y.o ` _ _ _ ` W W W W W W W W W W F L W W W W W W W W ( ` ( _ _ U   u.g.r.! ",
"*.u.t.o _ W W W ( L L L L L L L L J L F H H J K L L L L K T ( W W W Z   9.8.o.y ",
"} i Q * f L W W W P K K K K K K K K K Y P K K K K K K K K T W W R G , & t Q y { ",
"+.;.$.X.2 ; L W W ` ` ` ` _ ` ` ` ` ` ( _ ` ` ` _ ` ` ` ` _ W E B > 6 <.;.$.&.| ",
"*.z.s.9.7.. F W W / ` ` ` _ ` ` ` ` ` ( _ ` ` ` _ _ ` ` _ E W R n $ h.g.h.p.u.Q ",
"&.9.i.d.8.. W W W A I / / / / / / / / J T / / / / / / / K D W W N # h.i.s.u.q.! ",
":.g.i.i.r.. W W W F A A A A A S A A A n m A A A A A A S S H W W N # d.r.r.j.i.Q ",
";.j.u.s.u.. W W L M d d d d d d d d d ; s d d d d d d d h C T W N @ d.d.h.k.t.t ",
"*.g.a.p.u.% N N j * - % - - - % = - - + @ - - - - - - % - : k N x 5 r.t.s.j.0.y ",
";.g.u.g.r.r.      i.y.t.u.0.s.j.d.k.u.y >.a.h.r.s.d.t.y.u. .    % h.0.r.a.j.a.t ",
"*.u.u.g.d.a.j.s.t.d.k.a.u.9.7.h.g.a.3.y >.l.t.r.a.u.r.q.s.t.0.j.y.i.i.a.u.s.i.i ",
"&.s.t.d.j.s.h.i.y.s.f.i.a.h.s.r.u.a.i.Q ;.d.a.d.f.u.t.d.d.a.r.j.j.e.i.i.y.s.0.t ",
"&.s.a.i.d.s.0.0.i.g.t.i.r.y.s.s.i.r.0.9 ;.g.6.a.f.d.s.u.g.u.6.d.f.r.g.f.u.s.t.Q ",
";.d.i.i.3.d.6.y.d.s.f.h.i.f.h.i.i.a.u.u >.a.q.s.6.f.y.u.0.s.r.s.f.f.s.s.u.k.s.i ",
"&.s.u.h.q.-.4.-.k.u.d.6.4.j.t.0.u.g.a.t >.u.7.r.0.a.s.s.7.=.r.s.d.t.d.d.u.h.y.i ",
":.g.g.g.s.t.y.a.d.d.d.h.u.f.a.e.8.t.q.9 $.g.r.u.j.e.i.t.f.=.t.f.f.f.d.k.s.u.u.Q ",
"<.0.i.g.d.r.i.h.i.s.d.s.8.f.j.g.y.-.q.y $.0.f.a.s.i.e.i.j.j.u.a.f.d.i.a.y.d.y.t ",
",.r.u.t.g.s.i.d.j.g.a.h.s.u.y.6.d.a.i.y ;.k.h.h.y.8.h.h.f.i.t.f.j.a.i.j.h.k.t.i ",
":.g.y.r.u.9.u.s.f.f.d.f.g.i.i.g.j.j.7.t ;.l.j.u.a.s.e.t.a.r.d.j.j.k.e.0.g.f.y.i ",
"<.k.3.r.a.u.d.u.g.s.j.j.e.t.f.f.g.h.r.Q $.g.a.q.2.a.u.%.6.4.s.d.f.f.i.r.i.d.3.i ",
"<.g.g.j.u.g.j.g.d.t.t.j.j.a.s.h.t.d.a.Q ..r.i.i.e.a.a.g.r.f.k.s.e.7.i.i.q.h.q.y ",
"#.0.a.p.r.0.u.r.u.q.q.0.t.0.4.a.0.=.1.y $.r.u.6.d.u.r.u.t.s.t.u.e.8.e.6.=.r.0.i ",
"[ t i t i i i y r i i i y Q 9 Q Q y 9 { } r i Q Q y Q i Q y t Q Q Q u y Q Q r ' "
};
