/* XPM */
static char *result[] = {
/* columns rows colors chars-per-pixel */
"40 40 79 1 ",
"  c #6E6757",
". c #6F6B5F",
"X c #746D5D",
"o c #77705F",
"O c #78715F",
"+ c #736E61",
"@ c #767163",
"# c #7B7565",
"$ c #7F7867",
"% c #7C7769",
"& c #7E796A",
"* c #827C6C",
"= c #837E71",
"- c #8D846C",
"; c #868070",
": c #8F8876",
"> c #928A74",
", c #948C78",
"< c #9A9076",
"1 c #9B937D",
"2 c #8E8C8B",
"3 c #908E8B",
"4 c #94918A",
"5 c #99968F",
"6 c #93959F",
"7 c #9E9C98",
"8 c #A39D8F",
"9 c #A39F96",
"0 c #A9A292",
"q c #A5A29B",
"w c #AAA59D",
"e c #AEA99F",
"r c #B1A995",
"t c #9295A1",
"y c #9A9CA5",
"u c #9FA0A9",
"i c #A9A6A1",
"p c #ADAAA4",
"a c #A2A4AC",
"s c #A6A8AF",
"d c #B2AEA5",
"f c #B2AFA8",
"g c #B5B1A6",
"h c #B5B2AA",
"j c #B9B5AB",
"k c #BFBBAF",
"l c #A5A7B1",
"z c #A7A9B0",
"x c #ACADB5",
"c c #AFB0B7",
"v c #AFB1B8",
"b c #B3B4BB",
"n c #B7B8BE",
"m c #B8B9BF",
"M c #B5B7C0",
"N c #B6B8C1",
"B c #BCBDC4",
"V c #BFC0C6",
"C c #BEC1C9",
"Z c #C0C1C7",
"A c #C4C5CB",
"S c #C7C8CD",
"D c #C9CACE",
"F c #C6C9D0",
"G c #CCCDD2",
"H c #CFD0D5",
"J c #CFD1D8",
"K c #D1D2D6",
"L c #D4D5D9",
"P c #D7D8DC",
"I c #DADADE",
"U c #DDDEE1",
"Y c #DFE0E4",
"T c #E2E2E5",
"R c #E4E5E9",
"E c #E7E9EE",
"W c #E9E9EB",
"Q c #E7EAF1",
"! c #E8EAF0",
/* pixels */
"8p2ifpppdd9ifqhhjfi,0pdjhfhjfpfpfjfpipp,",
"7UFGTPUUIGLGLPRRUPG*qCBFKULPGJUUUTUULGC=",
"fLKUDBUJIDLBGPKLPGF%wPBDFYPSVmcAITLICUD*",
"pUJUIAIJTKSLUTGLGBB@eHLIHGALKHFNIIPULLx=",
"dRLPUUVKTLmALnIRRDl#dGKRKIAHPUSmULLGUxM=",
"pLLLGUIKIITILILHUKA#dFLbBPBAVSKSLULKULA@",
"pPLGTUAKYGGITYyBTTKodLLPDIPKITPKLYKLDLN#",
"pGAGIFTKPLLDBAhTYKH*gUHDBAIKHHUITLIKULA*",
"pADYATnBIPYLDLDLPbG#dILLLTAALAAILLTGZGS*",
"2GFAUTzLKcULLGLGYUF*gPDDUHKKHLAKKBIKYLx*",
"wLKDIm6RGBGGmGLDSGS*gGLBIKGIPITUSZDSAWS+",
"fRGPRPKIPGKPDVnIGZG#eAATAuIUTGKLZSGmSIG*",
"fUGSGPDGPTUIASHIPUK#gHHITGGRTLKIATILTKy+",
"hUUIzKVLGbUmHIHTHTBXjIIPIIIZKLLLULKUGTM#",
"pLMGxARRDAKKIZHTKUH#gRIUDLTDGKRUKcDTLIB+",
"fPABKUTLDUBSTAWIPPA#gZTLZDLWGGHDUGISKUS*",
"9ZKLIYILZKLKLKHLIYm kGKUGLLUYLcGYDZnSUK*",
"iNGSKGLWGIZISWUIPUA*dKUPLRPLLAHYRKSRHIZ*",
"pHSNBxDSBbDBxPGKHAB*dSVGAvBVSVISGKLGNN6*",
":****XX*X***X*X**XX<1@*#**@**O#**@@*X**=",
"8d9wjggwjjjgjgdd9gg,rffj9pdgdpedggpggii,",
"p!UNSSSTSBVTRRRRGLKoj!RTLLPKDYUYKUTYYJG*",
"wNKLDLASLIKKIGbZRUH*dTPDGUVZSUUISSYGKGV=",
"pUGKKYGYIPILLUbKKKS#gCLUcALUISKYKKIVSRK*",
"pRDPTHNIUITLLTUKHIA*4NLLGKUDKHLIUSIIYRA@",
"pUKJIZSUTILGIUTKGKP*9KLYRIUDHKRZUKZSPYB#",
"pUGUZKYPLTGDGBKRPTG*jLYAKLSDDDHHSUmAKTK@",
"pJKIIKYLDLTKGkbTULl*dWDZHGAVPSBTDKKLDLK*",
"iLDITLUKGLIGLULAGKK*eIKPIGDIIHZTTZGGGLB@",
"iKKGPLBmGUDGZGLKKABXgUbKULLGYGbIIAUIDKD%",
"dIKKcImDILITKUYHHKD*gKVLbIDDBISKIILIGEK*",
"pKGUBscaWGLccUSBGID*gGnABHLLmaZLISLLGYD%",
"fTUIKDDKILLUGIKZNSV wUZGTZKZIaSIIIIRLGD*",
"hBJUPSGTKLILmITUSsV*9BIKLKZKTTGKULGKSIG@",
"hADDULJPTUKULGGcPKK@jRTTDmTTIGSITKKYURS*",
"hUGZDNHLIILUUGKUTRM@dETDLLVSLALTTRAmUIS@",
"jTxZJDKGULTTADILUUA*9ULBsKGybxLIUUGSKLx*",
"jYUTJIRULDARTKLTAUH*8AGJVKKYSURJZbGKVTV#",
"qCJJANDAGZNBDmcKCal#wADMLDZDSKDJZnZcaZB*",
"=*##***@+**#**o**@+:,+#****%*@#***#***@="
};
